<mxfile host="app.diagrams.net" modified="2020-10-12T18:52:54.151Z" agent="5.0 (Windows NT 10.0; Win64; x64) AppleWebKit/537.36 (KHTML, like Gecko) Chrome/86.0.4240.75 Safari/537.36" etag="0qXbSQQm33t5DmC2UHW0" version="13.7.9" type="github">
  <diagram id="l7F-VtKFYWJufPlN7zAV" name="Page-1">
    <mxGraphModel dx="1749" dy="1352" grid="1" gridSize="10" guides="1" tooltips="1" connect="1" arrows="1" fold="1" page="1" pageScale="1" pageWidth="1920" pageHeight="1200" math="0" shadow="0">
      <root>
        <mxCell id="0" />
        <mxCell id="1" parent="0" />
        <mxCell id="Haiuo_viOq5dx9oI0FR8-1" value="NIA assets:&amp;nbsp;PRODUCTION NETWORKS&lt;br&gt;" style="points=[[0,0],[0.25,0],[0.5,0],[0.75,0],[1,0],[1,0.25],[1,0.5],[1,0.75],[1,1],[0.75,1],[0.5,1],[0.25,1],[0,1],[0,0.75],[0,0.5],[0,0.25]];outlineConnect=0;gradientColor=#ffffff;html=1;whiteSpace=wrap;fontSize=12;fontStyle=1;shape=mxgraph.aws4.group;grIcon=mxgraph.aws4.group_corporate_data_center;strokeColor=#5A6C86;fillColor=none;verticalAlign=top;align=left;spacingLeft=30;fontColor=#5A6C86;dashed=0;shadow=1;" vertex="1" parent="1">
          <mxGeometry x="40" y="750" width="930" height="410" as="geometry" />
        </mxCell>
        <mxCell id="Haiuo_viOq5dx9oI0FR8-2" value="8" style="rounded=1;whiteSpace=wrap;html=1;fillColor=#007CBD;strokeColor=none;fontColor=#FFFFFF;fontStyle=1;fontSize=22;" vertex="1" parent="1">
          <mxGeometry x="909.5" y="957" width="40" height="38" as="geometry" />
        </mxCell>
        <mxCell id="Haiuo_viOq5dx9oI0FR8-3" value="6" style="rounded=1;whiteSpace=wrap;html=1;fillColor=#007CBD;strokeColor=none;fontColor=#FFFFFF;fontStyle=1;fontSize=22;" vertex="1" parent="1">
          <mxGeometry x="909.75" y="762.5" width="40" height="38" as="geometry" />
        </mxCell>
        <mxCell id="Haiuo_viOq5dx9oI0FR8-4" value="1" style="rounded=1;whiteSpace=wrap;html=1;fillColor=#007CBD;strokeColor=none;fontColor=#FFFFFF;fontStyle=1;fontSize=22;" vertex="1" parent="1">
          <mxGeometry x="130" y="932.81" width="40" height="38" as="geometry" />
        </mxCell>
        <mxCell id="Haiuo_viOq5dx9oI0FR8-6" value="" style="whiteSpace=wrap;html=1;dashed=0;fontColor=#AAB7B8;fontStyle=0;align=left;verticalAlign=top;strokeColor=#000000;fillColor=none;gradientColor=none;spacingLeft=30;" vertex="1" parent="1">
          <mxGeometry x="548.75" y="892.75" width="250" height="219" as="geometry" />
        </mxCell>
        <mxCell id="Haiuo_viOq5dx9oI0FR8-7" value="" style="whiteSpace=wrap;html=1;dashed=0;fontColor=#AAB7B8;fontStyle=0;align=left;verticalAlign=top;strokeColor=#000000;fillColor=none;gradientColor=none;spacingLeft=30;" vertex="1" parent="1">
          <mxGeometry x="205.25" y="892.5" width="250" height="219" as="geometry" />
        </mxCell>
        <mxCell id="Haiuo_viOq5dx9oI0FR8-11" value="Tranwall core&lt;span style=&quot;text-align: left&quot;&gt;&lt;br&gt;TMB VM&lt;br&gt;192.168.0.220&lt;br&gt;&lt;/span&gt;" style="outlineConnect=0;fontColor=#232F3E;gradientColor=#FF0000;gradientDirection=north;fillColor=#333333;strokeColor=#ffffff;dashed=0;verticalLabelPosition=middle;verticalAlign=middle;align=left;html=1;fontSize=12;fontStyle=0;aspect=fixed;shape=mxgraph.aws4.resourceIcon;resIcon=mxgraph.aws4.compute;labelPosition=right;spacing=5;spacingBottom=-5;" vertex="1" parent="1">
          <mxGeometry x="205.25" y="892.5" width="40" height="40" as="geometry" />
        </mxCell>
        <mxCell id="Haiuo_viOq5dx9oI0FR8-12" value="&lt;span style=&quot;text-align: left&quot;&gt;Tranwall MWS&amp;nbsp;&lt;/span&gt;&lt;span style=&quot;text-align: left&quot;&gt;VM&lt;br&gt;192.168.10.230&lt;br&gt;&lt;/span&gt;" style="outlineConnect=0;fontColor=#232F3E;gradientColor=#B3B3B3;gradientDirection=north;fillColor=#333333;strokeColor=#ffffff;dashed=0;verticalLabelPosition=middle;verticalAlign=middle;align=left;html=1;fontSize=12;fontStyle=0;aspect=fixed;shape=mxgraph.aws4.resourceIcon;resIcon=mxgraph.aws4.compute;labelPosition=right;spacing=5;spacingBottom=-5;" vertex="1" parent="1">
          <mxGeometry x="548.75" y="893.25" width="40" height="40" as="geometry" />
        </mxCell>
        <mxCell id="Haiuo_viOq5dx9oI0FR8-16" value="Tranwall TC update plan overview &lt;br&gt;for production TMB at&amp;nbsp;NI Africa environment&lt;div style=&quot;font-size: 36px&quot;&gt;&lt;/div&gt;" style="text;html=1;resizable=0;points=[];autosize=1;align=left;verticalAlign=top;spacingTop=-4;fontSize=36;fontStyle=1" vertex="1" parent="1">
          <mxGeometry x="39" y="60" width="770" height="90" as="geometry" />
        </mxCell>
        <mxCell id="Haiuo_viOq5dx9oI0FR8-17" value="Implementation architecture" style="text;html=1;resizable=0;points=[];autosize=1;align=left;verticalAlign=top;spacingTop=-4;fontSize=16" vertex="1" parent="1">
          <mxGeometry x="40" y="178" width="210" height="20" as="geometry" />
        </mxCell>
        <mxCell id="Haiuo_viOq5dx9oI0FR8-18" value="" style="line;strokeWidth=2;html=1;fontSize=14;" vertex="1" parent="1">
          <mxGeometry x="29" y="203" width="1240" height="10" as="geometry" />
        </mxCell>
        <mxCell id="Haiuo_viOq5dx9oI0FR8-20" value="&lt;font style=&quot;font-size: 12px&quot;&gt;&lt;span&gt;M&lt;/span&gt;&lt;span style=&quot;font-family: &amp;#34;helvetica neue&amp;#34;&quot;&gt;obile &lt;br&gt;Web Service&lt;/span&gt;&lt;/font&gt;" style="outlineConnect=0;fontColor=#232F3E;gradientColor=#000000;gradientDirection=north;fillColor=#660000;strokeColor=#E6E6E6;dashed=0;verticalLabelPosition=bottom;verticalAlign=top;align=center;html=1;fontSize=12;fontStyle=0;aspect=fixed;shape=mxgraph.aws4.resourceIcon;resIcon=mxgraph.aws4.iot_sitewise;shadow=0;spacing=2;" vertex="1" parent="1">
          <mxGeometry x="632.75" y="952.25" width="78" height="78" as="geometry" />
        </mxCell>
        <mxCell id="Haiuo_viOq5dx9oI0FR8-21" value="2" style="rounded=1;whiteSpace=wrap;html=1;fillColor=#007CBD;strokeColor=none;fontColor=#FFFFFF;fontStyle=1;fontSize=22;" vertex="1" parent="1">
          <mxGeometry x="130" y="1004.5" width="40" height="38" as="geometry" />
        </mxCell>
        <mxCell id="Haiuo_viOq5dx9oI0FR8-23" value="NIA Auth TWO&amp;nbsp;&lt;br&gt;online system" style="outlineConnect=0;fontColor=#232F3E;gradientColor=#FF6666;gradientDirection=north;fillColor=#0000CC;strokeColor=#ffffff;dashed=0;verticalLabelPosition=bottom;verticalAlign=top;align=center;html=1;fontSize=12;fontStyle=0;aspect=fixed;shape=mxgraph.aws4.resourceIcon;resIcon=mxgraph.aws4.application_integration;" vertex="1" parent="1">
          <mxGeometry x="60" y="1033.5" width="78" height="78" as="geometry" />
        </mxCell>
        <mxCell id="Haiuo_viOq5dx9oI0FR8-30" value="" style="edgeStyle=orthogonalEdgeStyle;rounded=0;orthogonalLoop=1;jettySize=auto;html=1;strokeColor=#545B64;strokeWidth=2;endFill=0;endArrow=open;startArrow=openThin;startFill=0;" edge="1" parent="1">
          <mxGeometry relative="1" as="geometry">
            <mxPoint x="100" y="990" as="sourcePoint" />
            <mxPoint x="231.28351955307244" y="1025.5" as="targetPoint" />
            <Array as="points">
              <mxPoint x="190" y="990" />
              <mxPoint x="190" y="1025" />
            </Array>
          </mxGeometry>
        </mxCell>
        <mxCell id="Haiuo_viOq5dx9oI0FR8-31" value="Issuer&lt;br&gt;SOAP API" style="outlineConnect=0;fontColor=#232F3E;gradientColor=none;fillColor=#000000;strokeColor=none;dashed=0;verticalLabelPosition=bottom;verticalAlign=top;align=center;html=1;fontSize=12;fontStyle=0;aspect=fixed;pointerEvents=1;shape=mxgraph.aws4.iot_analytics_channel;" vertex="1" parent="1">
          <mxGeometry x="231.25" y="991.9999999999998" width="60" height="72" as="geometry" />
        </mxCell>
        <mxCell id="Haiuo_viOq5dx9oI0FR8-32" value="&lt;span style=&quot;text-align: left&quot;&gt;Tranwall&lt;br&gt;Core Service&lt;/span&gt;" style="outlineConnect=0;fontColor=#232F3E;gradientColor=#000000;gradientDirection=north;fillColor=#660000;strokeColor=#E6E6E6;dashed=0;verticalLabelPosition=bottom;verticalAlign=top;align=center;html=1;fontSize=12;fontStyle=0;aspect=fixed;shape=mxgraph.aws4.resourceIcon;resIcon=mxgraph.aws4.chime;shadow=0;" vertex="1" parent="1">
          <mxGeometry x="291.25" y="952" width="78" height="78" as="geometry" />
        </mxCell>
        <mxCell id="Haiuo_viOq5dx9oI0FR8-33" value="Java&lt;br&gt;RMI API" style="outlineConnect=0;fontColor=#232F3E;gradientColor=none;fillColor=#000000;strokeColor=none;dashed=0;verticalLabelPosition=bottom;verticalAlign=top;align=center;html=1;fontSize=12;fontStyle=0;aspect=fixed;pointerEvents=1;shape=mxgraph.aws4.iot_analytics_channel;flipV=0;flipH=1;" vertex="1" parent="1">
          <mxGeometry x="370.25" y="990.9999999999998" width="60" height="72" as="geometry" />
        </mxCell>
        <mxCell id="Haiuo_viOq5dx9oI0FR8-34" value="Java&lt;br&gt;RMI API" style="outlineConnect=0;fontColor=#232F3E;gradientColor=none;fillColor=#000000;strokeColor=none;dashed=0;verticalLabelPosition=bottom;verticalAlign=top;align=center;html=1;fontSize=12;fontStyle=0;aspect=fixed;pointerEvents=1;shape=mxgraph.aws4.iot_analytics_channel;spacing=4;" vertex="1" parent="1">
          <mxGeometry x="572.75" y="991.2499999999998" width="60" height="72" as="geometry" />
        </mxCell>
        <mxCell id="Haiuo_viOq5dx9oI0FR8-35" value="Web&lt;br&gt;SOAP API" style="outlineConnect=0;fontColor=#232F3E;gradientColor=none;fillColor=#000000;strokeColor=none;dashed=0;verticalLabelPosition=bottom;verticalAlign=top;align=center;html=1;fontSize=12;fontStyle=0;aspect=fixed;pointerEvents=1;shape=mxgraph.aws4.iot_analytics_channel;flipV=0;flipH=1;" vertex="1" parent="1">
          <mxGeometry x="710.75" y="991.2499999999998" width="60" height="72" as="geometry" />
        </mxCell>
        <mxCell id="Haiuo_viOq5dx9oI0FR8-36" value="" style="edgeStyle=orthogonalEdgeStyle;rounded=0;orthogonalLoop=1;jettySize=auto;html=1;strokeColor=#545B64;strokeWidth=2;endFill=0;endArrow=open;startArrow=openThin;startFill=0;" edge="1" parent="1" source="Haiuo_viOq5dx9oI0FR8-33" target="Haiuo_viOq5dx9oI0FR8-34">
          <mxGeometry relative="1" as="geometry">
            <mxPoint x="151.66011523687575" y="1210.8189655172414" as="sourcePoint" />
            <mxPoint x="515.25" y="1062.75" as="targetPoint" />
            <Array as="points">
              <mxPoint x="500.25" y="1051.25" />
              <mxPoint x="500.25" y="1051.25" />
            </Array>
          </mxGeometry>
        </mxCell>
        <mxCell id="Haiuo_viOq5dx9oI0FR8-39" value="NIA SMS gate&lt;br&gt;192.168.10.30" style="dashed=0;outlineConnect=0;html=1;align=center;labelPosition=center;verticalLabelPosition=bottom;verticalAlign=top;shape=mxgraph.webicons.sms;fillColor=#0000CC;gradientColor=#FF6666;strokeColor=#ffffff;fontColor=#232F3E;fontStyle=0;gradientDirection=north;aspect=fixed;" vertex="1" parent="1">
          <mxGeometry x="843.75" y="791.5" width="78" height="78" as="geometry" />
        </mxCell>
        <mxCell id="Haiuo_viOq5dx9oI0FR8-40" value="" style="edgeStyle=orthogonalEdgeStyle;rounded=0;orthogonalLoop=1;jettySize=auto;html=1;strokeColor=#545B64;strokeWidth=2;endFill=0;endArrow=open;startArrow=none;startFill=0;dashed=1;" edge="1" parent="1" target="Haiuo_viOq5dx9oI0FR8-39">
          <mxGeometry relative="1" as="geometry">
            <mxPoint x="680" y="813" as="sourcePoint" />
            <mxPoint x="500.25" y="823.03" as="targetPoint" />
            <Array as="points">
              <mxPoint x="700" y="813" />
              <mxPoint x="700" y="813" />
            </Array>
          </mxGeometry>
        </mxCell>
        <mxCell id="Haiuo_viOq5dx9oI0FR8-41" value="&lt;font style=&quot;font-size: 14px&quot;&gt;SMPP&lt;/font&gt;" style="text;html=1;align=center;verticalAlign=middle;resizable=0;points=[];;labelBackgroundColor=#ffffff;fontSize=18;fontColor=#000000;" vertex="1" connectable="0" parent="Haiuo_viOq5dx9oI0FR8-40">
          <mxGeometry x="0.2189" y="4" relative="1" as="geometry">
            <mxPoint x="1" as="offset" />
          </mxGeometry>
        </mxCell>
        <mxCell id="Haiuo_viOq5dx9oI0FR8-42" value="" style="edgeStyle=orthogonalEdgeStyle;rounded=0;orthogonalLoop=1;jettySize=auto;html=1;strokeColor=#545B64;strokeWidth=2;endFill=0;endArrow=open;startArrow=none;startFill=0;dashed=1;" edge="1" parent="1" target="Haiuo_viOq5dx9oI0FR8-39" source="Haiuo_viOq5dx9oI0FR8-7">
          <mxGeometry relative="1" as="geometry">
            <mxPoint x="370" y="882.5" as="sourcePoint" />
            <mxPoint x="640.25" y="843.03" as="targetPoint" />
            <Array as="points">
              <mxPoint x="438" y="852.5" />
            </Array>
          </mxGeometry>
        </mxCell>
        <mxCell id="Haiuo_viOq5dx9oI0FR8-43" value="SMPP" style="text;html=1;align=center;verticalAlign=middle;resizable=0;points=[];;labelBackgroundColor=#ffffff;fontSize=14;fontColor=#000000;" vertex="1" connectable="0" parent="Haiuo_viOq5dx9oI0FR8-42">
          <mxGeometry x="0.5989" y="1" relative="1" as="geometry">
            <mxPoint x="3" as="offset" />
          </mxGeometry>
        </mxCell>
        <mxCell id="Haiuo_viOq5dx9oI0FR8-52" value="" style="group;container=1;" vertex="1" connectable="0" parent="1">
          <mxGeometry x="1080" y="1001" width="143.5" height="159" as="geometry" />
        </mxCell>
        <mxCell id="Haiuo_viOq5dx9oI0FR8-53" value="" style="group" vertex="1" connectable="0" parent="Haiuo_viOq5dx9oI0FR8-52">
          <mxGeometry x="-10" y="-1" width="153.5" height="148" as="geometry" />
        </mxCell>
        <mxCell id="Haiuo_viOq5dx9oI0FR8-54" value="" style="whiteSpace=wrap;html=1;dashed=0;fontColor=#AAB7B8;fontStyle=0;align=left;verticalAlign=top;strokeColor=#000000;fillColor=none;gradientColor=none;spacingLeft=30;" vertex="1" parent="Haiuo_viOq5dx9oI0FR8-53">
          <mxGeometry x="1" width="119" height="148" as="geometry" />
        </mxCell>
        <mxCell id="Haiuo_viOq5dx9oI0FR8-55" value="&lt;span style=&quot;text-align: left&quot;&gt;TMB&lt;br&gt;&amp;nbsp;Tranwallet&lt;br&gt;Mobile users&lt;/span&gt;" style="outlineConnect=0;fontColor=#232F3E;gradientColor=#FF0000;gradientDirection=north;fillColor=#333333;strokeColor=#ffffff;dashed=0;verticalLabelPosition=middle;verticalAlign=middle;align=left;html=1;fontSize=12;fontStyle=0;aspect=fixed;shape=mxgraph.aws4.resourceIcon;resIcon=mxgraph.aws4.compute;labelPosition=right;spacing=5;" vertex="1" parent="Haiuo_viOq5dx9oI0FR8-53">
          <mxGeometry width="40" height="40" as="geometry" />
        </mxCell>
        <mxCell id="Haiuo_viOq5dx9oI0FR8-56" value="Android" style="shape=image;html=1;verticalAlign=middle;verticalLabelPosition=middle;labelBackgroundColor=#ffffff;imageAspect=0;aspect=fixed;image=https://cdn2.iconfinder.com/data/icons/line-hero-essentials/32/Essentials_smartphone_iphone_phone-128.png;shadow=0;strokeColor=#FF0000;fillColor=#333333;gradientColor=#000000;labelPosition=right;align=left;" vertex="1" parent="Haiuo_viOq5dx9oI0FR8-53">
          <mxGeometry y="47.5" width="50" height="50" as="geometry" />
        </mxCell>
        <mxCell id="Haiuo_viOq5dx9oI0FR8-57" value="iOS" style="shape=image;html=1;verticalAlign=middle;verticalLabelPosition=middle;labelBackgroundColor=#ffffff;imageAspect=0;aspect=fixed;image=https://cdn2.iconfinder.com/data/icons/line-hero-essentials/32/Essentials_smartphone_iphone_phone-128.png;shadow=0;strokeColor=#FF0000;fillColor=#333333;gradientColor=#000000;labelPosition=right;align=left;" vertex="1" parent="Haiuo_viOq5dx9oI0FR8-53">
          <mxGeometry x="39" y="88" width="50" height="50" as="geometry" />
        </mxCell>
        <mxCell id="Haiuo_viOq5dx9oI0FR8-58" value="" style="rounded=0;orthogonalLoop=1;jettySize=auto;html=1;strokeColor=#545B64;strokeWidth=2;endFill=0;endArrow=open;startArrow=openThin;entryX=-0.043;entryY=0.162;entryDx=0;entryDy=0;startFill=0;entryPerimeter=0;" edge="1" parent="1" source="Haiuo_viOq5dx9oI0FR8-78" target="Haiuo_viOq5dx9oI0FR8-54">
          <mxGeometry relative="1" as="geometry">
            <mxPoint x="734.75" y="1382.1666666666667" as="sourcePoint" />
            <mxPoint x="934.0833333333335" y="1382.1666666666667" as="targetPoint" />
          </mxGeometry>
        </mxCell>
        <mxCell id="Haiuo_viOq5dx9oI0FR8-59" value="TLS" style="text;html=1;align=center;verticalAlign=middle;resizable=0;points=[];;labelBackgroundColor=none;fontSize=14;fontColor=#000000;" vertex="1" connectable="0" parent="Haiuo_viOq5dx9oI0FR8-58">
          <mxGeometry x="0.1634" y="-1" relative="1" as="geometry">
            <mxPoint y="10.5" as="offset" />
          </mxGeometry>
        </mxCell>
        <mxCell id="Haiuo_viOq5dx9oI0FR8-60" value="" style="rounded=0;orthogonalLoop=1;jettySize=auto;html=1;strokeColor=#545B64;strokeWidth=2;endFill=0;endArrow=open;startArrow=openThin;entryX=-0.001;entryY=0.168;entryDx=0;entryDy=0;startFill=0;entryPerimeter=0;" edge="1" parent="1" source="Haiuo_viOq5dx9oI0FR8-78">
          <mxGeometry relative="1" as="geometry">
            <mxPoint x="794.7164804469273" y="1111.5" as="sourcePoint" />
            <mxPoint x="1073.6310000000003" y="934.8639999999998" as="targetPoint" />
          </mxGeometry>
        </mxCell>
        <mxCell id="Haiuo_viOq5dx9oI0FR8-61" value="TLS" style="text;html=1;align=center;verticalAlign=middle;resizable=0;points=[];;labelBackgroundColor=none;fontSize=14;fontColor=#000000;" vertex="1" connectable="0" parent="Haiuo_viOq5dx9oI0FR8-60">
          <mxGeometry x="0.1525" y="2" relative="1" as="geometry">
            <mxPoint x="1" y="-15" as="offset" />
          </mxGeometry>
        </mxCell>
        <mxCell id="Haiuo_viOq5dx9oI0FR8-68" value="" style="rounded=0;orthogonalLoop=1;jettySize=auto;html=1;strokeColor=#545B64;strokeWidth=2;endFill=0;endArrow=open;startArrow=none;startFill=0;dashed=1;" edge="1" parent="1" source="Haiuo_viOq5dx9oI0FR8-39" target="Haiuo_viOq5dx9oI0FR8-69">
          <mxGeometry relative="1" as="geometry">
            <mxPoint x="379" y="865.3333333333333" as="sourcePoint" />
            <mxPoint x="647" y="865.3333333333333" as="targetPoint" />
          </mxGeometry>
        </mxCell>
        <mxCell id="Haiuo_viOq5dx9oI0FR8-69" value="Service provider" style="dashed=0;outlineConnect=0;html=1;align=center;labelPosition=center;verticalLabelPosition=bottom;verticalAlign=top;shape=mxgraph.webicons.sms;fillColor=#CCCCCC;gradientColor=#999999;strokeColor=#ffffff;fontColor=#232F3E;fontStyle=0;gradientDirection=north;aspect=fixed;" vertex="1" parent="1">
          <mxGeometry x="1082" y="791.5" width="78" height="78" as="geometry" />
        </mxCell>
        <mxCell id="Haiuo_viOq5dx9oI0FR8-70" value="" style="rounded=0;orthogonalLoop=1;jettySize=auto;html=1;strokeColor=#545B64;strokeWidth=2;endFill=0;endArrow=open;startArrow=none;startFill=0;dashed=1;entryX=1;entryY=0.5;entryDx=0;entryDy=0;edgeStyle=orthogonalEdgeStyle;" edge="1" parent="1" source="Haiuo_viOq5dx9oI0FR8-69">
          <mxGeometry relative="1" as="geometry">
            <mxPoint x="886.5" y="853.0873015873015" as="sourcePoint" />
            <mxPoint x="1192.75" y="984" as="targetPoint" />
            <Array as="points">
              <mxPoint x="1212" y="849" />
              <mxPoint x="1212" y="984" />
            </Array>
          </mxGeometry>
        </mxCell>
        <mxCell id="Haiuo_viOq5dx9oI0FR8-71" value="" style="rounded=0;orthogonalLoop=1;jettySize=auto;html=1;strokeColor=#545B64;strokeWidth=2;endFill=0;endArrow=open;startArrow=none;startFill=0;dashed=1;edgeStyle=orthogonalEdgeStyle;entryX=1;entryY=0.5;entryDx=0;entryDy=0;" edge="1" parent="1" source="Haiuo_viOq5dx9oI0FR8-69" target="Haiuo_viOq5dx9oI0FR8-54">
          <mxGeometry relative="1" as="geometry">
            <mxPoint x="1170" y="850.8333333333333" as="sourcePoint" />
            <mxPoint x="1188" y="1199" as="targetPoint" />
            <Array as="points">
              <mxPoint x="1232" y="831" />
              <mxPoint x="1232" y="1074" />
            </Array>
          </mxGeometry>
        </mxCell>
        <mxCell id="Haiuo_viOq5dx9oI0FR8-74" value="7" style="rounded=1;whiteSpace=wrap;html=1;fillColor=#007CBD;strokeColor=none;fontColor=#FFFFFF;fontStyle=1;fontSize=22;" vertex="1" parent="1">
          <mxGeometry x="751.75" y="900.25" width="40" height="38" as="geometry" />
        </mxCell>
        <mxCell id="Haiuo_viOq5dx9oI0FR8-75" value="4" style="rounded=1;whiteSpace=wrap;html=1;fillColor=#007CBD;strokeColor=none;fontColor=#FFFFFF;fontStyle=1;fontSize=22;" vertex="1" parent="1">
          <mxGeometry x="409.25" y="899.5" width="40" height="38" as="geometry" />
        </mxCell>
        <mxCell id="Haiuo_viOq5dx9oI0FR8-76" value="NIA TWCMS&lt;br&gt;card enrolement&lt;br&gt;feeder" style="outlineConnect=0;fontColor=#232F3E;gradientColor=#FF6666;gradientDirection=north;fillColor=#0000CC;strokeColor=#ffffff;dashed=0;verticalLabelPosition=top;verticalAlign=bottom;align=center;html=1;fontSize=12;fontStyle=0;aspect=fixed;shape=mxgraph.aws4.resourceIcon;resIcon=mxgraph.aws4.glue;labelPosition=center;" vertex="1" parent="1">
          <mxGeometry x="60" y="863.31" width="78" height="78" as="geometry" />
        </mxCell>
        <mxCell id="Haiuo_viOq5dx9oI0FR8-77" value="" style="edgeStyle=orthogonalEdgeStyle;rounded=0;orthogonalLoop=1;jettySize=auto;html=1;strokeColor=#545B64;strokeWidth=2;endFill=0;endArrow=open;startArrow=openThin;startFill=0;" edge="1" parent="1" source="Haiuo_viOq5dx9oI0FR8-23" target="Haiuo_viOq5dx9oI0FR8-76">
          <mxGeometry relative="1" as="geometry">
            <mxPoint x="97.66666666666674" y="958.81" as="sourcePoint" />
            <mxPoint x="231.03351955307267" y="1233.9766666666667" as="targetPoint" />
            <Array as="points" />
          </mxGeometry>
        </mxCell>
        <mxCell id="Haiuo_viOq5dx9oI0FR8-78" value="NIA IPS&lt;br style=&quot;font-size: 12px&quot;&gt;&lt;span style=&quot;color: rgb(34 , 34 , 34) ; font-family: &amp;#34;arial&amp;#34; , sans-serif ; font-size: 12px ; text-align: left ; white-space: normal ; background-color: rgb(255 , 255 , 255)&quot;&gt;F5Networks&lt;/span&gt;" style="outlineConnect=0;fontColor=#232F3E;gradientColor=#FF6666;gradientDirection=north;fillColor=#0000CC;strokeColor=#ffffff;dashed=0;verticalLabelPosition=bottom;verticalAlign=top;align=center;html=1;fontSize=12;fontStyle=0;aspect=fixed;shape=mxgraph.aws4.resourceIcon;resIcon=mxgraph.aws4.iot_device_defender;labelBackgroundColor=none;" vertex="1" parent="1">
          <mxGeometry x="859" y="988" width="78" height="78" as="geometry" />
        </mxCell>
        <mxCell id="Haiuo_viOq5dx9oI0FR8-79" value="" style="rounded=0;orthogonalLoop=1;jettySize=auto;html=1;strokeColor=#545B64;strokeWidth=2;endFill=0;endArrow=open;startArrow=openThin;startFill=0;" edge="1" parent="1" source="Haiuo_viOq5dx9oI0FR8-35" target="Haiuo_viOq5dx9oI0FR8-78">
          <mxGeometry relative="1" as="geometry">
            <mxPoint x="1009.75" y="1056.046902579564" as="sourcePoint" />
            <mxPoint x="859.25" y="1063.56" as="targetPoint" />
          </mxGeometry>
        </mxCell>
        <mxCell id="Haiuo_viOq5dx9oI0FR8-80" value="TLS" style="text;html=1;align=center;verticalAlign=middle;resizable=0;points=[];;labelBackgroundColor=none;fontSize=14;fontColor=#000000;" vertex="1" connectable="0" parent="Haiuo_viOq5dx9oI0FR8-79">
          <mxGeometry x="0.1525" y="2" relative="1" as="geometry">
            <mxPoint x="5" y="-9" as="offset" />
          </mxGeometry>
        </mxCell>
        <mxCell id="Haiuo_viOq5dx9oI0FR8-113" value="NIA assets:&amp;nbsp;PRODUCTION NETWORKS&lt;br&gt;" style="points=[[0,0],[0.25,0],[0.5,0],[0.75,0],[1,0],[1,0.25],[1,0.5],[1,0.75],[1,1],[0.75,1],[0.5,1],[0.25,1],[0,1],[0,0.75],[0,0.5],[0,0.25]];outlineConnect=0;gradientColor=#ffffff;html=1;whiteSpace=wrap;fontSize=12;fontStyle=1;shape=mxgraph.aws4.group;grIcon=mxgraph.aws4.group_corporate_data_center;strokeColor=#5A6C86;fillColor=none;verticalAlign=top;align=left;spacingLeft=30;fontColor=#5A6C86;dashed=0;shadow=1;" vertex="1" parent="1">
          <mxGeometry x="40" y="240" width="930" height="410" as="geometry" />
        </mxCell>
        <mxCell id="Haiuo_viOq5dx9oI0FR8-114" value="8" style="rounded=1;whiteSpace=wrap;html=1;fillColor=#007CBD;strokeColor=none;fontColor=#FFFFFF;fontStyle=1;fontSize=22;" vertex="1" parent="1">
          <mxGeometry x="909.5" y="447" width="40" height="38" as="geometry" />
        </mxCell>
        <mxCell id="Haiuo_viOq5dx9oI0FR8-115" value="6" style="rounded=1;whiteSpace=wrap;html=1;fillColor=#007CBD;strokeColor=none;fontColor=#FFFFFF;fontStyle=1;fontSize=22;" vertex="1" parent="1">
          <mxGeometry x="909.75" y="252.5" width="40" height="38" as="geometry" />
        </mxCell>
        <mxCell id="Haiuo_viOq5dx9oI0FR8-116" value="1" style="rounded=1;whiteSpace=wrap;html=1;fillColor=#007CBD;strokeColor=none;fontColor=#FFFFFF;fontStyle=1;fontSize=22;" vertex="1" parent="1">
          <mxGeometry x="125" y="446.99999999999994" width="40" height="38" as="geometry" />
        </mxCell>
        <mxCell id="Haiuo_viOq5dx9oI0FR8-117" value="" style="whiteSpace=wrap;html=1;dashed=0;fontColor=#AAB7B8;fontStyle=0;align=left;verticalAlign=top;strokeColor=#000000;fillColor=none;gradientColor=none;spacingLeft=30;" vertex="1" parent="1">
          <mxGeometry x="548.75" y="382.75" width="250" height="219" as="geometry" />
        </mxCell>
        <mxCell id="Haiuo_viOq5dx9oI0FR8-118" value="" style="whiteSpace=wrap;html=1;dashed=0;fontColor=#AAB7B8;fontStyle=0;align=left;verticalAlign=top;strokeColor=#000000;fillColor=none;gradientColor=none;spacingLeft=30;" vertex="1" parent="1">
          <mxGeometry x="205.25" y="382.5" width="250" height="219" as="geometry" />
        </mxCell>
        <mxCell id="Haiuo_viOq5dx9oI0FR8-119" value="Tranwall core&lt;span style=&quot;text-align: left&quot;&gt;&lt;br&gt;TMB VM&lt;br&gt;192.168.0.220&lt;br&gt;&lt;/span&gt;" style="outlineConnect=0;fontColor=#232F3E;gradientColor=#FF0000;gradientDirection=north;fillColor=#333333;strokeColor=#ffffff;dashed=0;verticalLabelPosition=middle;verticalAlign=middle;align=left;html=1;fontSize=12;fontStyle=0;aspect=fixed;shape=mxgraph.aws4.resourceIcon;resIcon=mxgraph.aws4.compute;labelPosition=right;spacing=5;spacingBottom=-5;" vertex="1" parent="1">
          <mxGeometry x="205.25" y="382.5" width="40" height="40" as="geometry" />
        </mxCell>
        <mxCell id="Haiuo_viOq5dx9oI0FR8-120" value="&lt;span style=&quot;text-align: left&quot;&gt;Tranwall MWS&amp;nbsp;&lt;/span&gt;&lt;span style=&quot;text-align: left&quot;&gt;VM&lt;br&gt;192.168.10.230&lt;br&gt;&lt;/span&gt;" style="outlineConnect=0;fontColor=#232F3E;gradientColor=#B3B3B3;gradientDirection=north;fillColor=#333333;strokeColor=#ffffff;dashed=0;verticalLabelPosition=middle;verticalAlign=middle;align=left;html=1;fontSize=12;fontStyle=0;aspect=fixed;shape=mxgraph.aws4.resourceIcon;resIcon=mxgraph.aws4.compute;labelPosition=right;spacing=5;spacingBottom=-5;" vertex="1" parent="1">
          <mxGeometry x="548.75" y="383.25" width="40" height="40" as="geometry" />
        </mxCell>
        <mxCell id="Haiuo_viOq5dx9oI0FR8-121" value="&lt;font style=&quot;font-size: 12px&quot;&gt;&lt;span&gt;M&lt;/span&gt;&lt;span style=&quot;font-family: &amp;#34;helvetica neue&amp;#34;&quot;&gt;obile &lt;br&gt;Web Service&lt;/span&gt;&lt;/font&gt;" style="outlineConnect=0;fontColor=#232F3E;gradientColor=#000000;gradientDirection=north;fillColor=#660000;strokeColor=#E6E6E6;dashed=0;verticalLabelPosition=bottom;verticalAlign=top;align=center;html=1;fontSize=12;fontStyle=0;aspect=fixed;shape=mxgraph.aws4.resourceIcon;resIcon=mxgraph.aws4.iot_sitewise;shadow=0;spacing=2;" vertex="1" parent="1">
          <mxGeometry x="632.75" y="442.25" width="78" height="78" as="geometry" />
        </mxCell>
        <mxCell id="Haiuo_viOq5dx9oI0FR8-122" value="2" style="rounded=1;whiteSpace=wrap;html=1;fillColor=#007CBD;strokeColor=none;fontColor=#FFFFFF;fontStyle=1;fontSize=22;" vertex="1" parent="1">
          <mxGeometry x="350" y="281.5" width="40" height="38" as="geometry" />
        </mxCell>
        <mxCell id="Haiuo_viOq5dx9oI0FR8-123" value="NIA Auth TWO&amp;nbsp;&lt;br&gt;online system" style="outlineConnect=0;fontColor=#232F3E;gradientColor=#FF6666;gradientDirection=north;fillColor=#0000CC;strokeColor=#ffffff;dashed=0;verticalLabelPosition=bottom;verticalAlign=top;align=center;html=1;fontSize=12;fontStyle=0;aspect=fixed;shape=mxgraph.aws4.resourceIcon;resIcon=mxgraph.aws4.application_integration;" vertex="1" parent="1">
          <mxGeometry x="60" y="475" width="78" height="78" as="geometry" />
        </mxCell>
        <mxCell id="Haiuo_viOq5dx9oI0FR8-124" value="" style="edgeStyle=orthogonalEdgeStyle;rounded=0;orthogonalLoop=1;jettySize=auto;html=1;strokeColor=#545B64;strokeWidth=2;endFill=0;endArrow=open;startArrow=openThin;startFill=0;" edge="1" parent="1">
          <mxGeometry relative="1" as="geometry">
            <mxPoint x="140" y="516" as="sourcePoint" />
            <mxPoint x="231.28351955307244" y="515.5" as="targetPoint" />
            <Array as="points">
              <mxPoint x="160" y="516" />
              <mxPoint x="160" y="516" />
            </Array>
          </mxGeometry>
        </mxCell>
        <mxCell id="Haiuo_viOq5dx9oI0FR8-125" value="Issuer&lt;br&gt;SOAP API" style="outlineConnect=0;fontColor=#232F3E;gradientColor=none;fillColor=#000000;strokeColor=none;dashed=0;verticalLabelPosition=bottom;verticalAlign=top;align=center;html=1;fontSize=12;fontStyle=0;aspect=fixed;pointerEvents=1;shape=mxgraph.aws4.iot_analytics_channel;" vertex="1" parent="1">
          <mxGeometry x="231.25" y="481.9999999999998" width="60" height="72" as="geometry" />
        </mxCell>
        <mxCell id="Haiuo_viOq5dx9oI0FR8-126" value="&lt;span style=&quot;text-align: left&quot;&gt;Tranwall&lt;br&gt;Core Service&lt;/span&gt;" style="outlineConnect=0;fontColor=#232F3E;gradientColor=#000000;gradientDirection=north;fillColor=#660000;strokeColor=#E6E6E6;dashed=0;verticalLabelPosition=bottom;verticalAlign=top;align=center;html=1;fontSize=12;fontStyle=0;aspect=fixed;shape=mxgraph.aws4.resourceIcon;resIcon=mxgraph.aws4.chime;shadow=0;" vertex="1" parent="1">
          <mxGeometry x="291.25" y="442" width="78" height="78" as="geometry" />
        </mxCell>
        <mxCell id="Haiuo_viOq5dx9oI0FR8-127" value="Java&lt;br&gt;RMI API" style="outlineConnect=0;fontColor=#232F3E;gradientColor=none;fillColor=#000000;strokeColor=none;dashed=0;verticalLabelPosition=bottom;verticalAlign=top;align=center;html=1;fontSize=12;fontStyle=0;aspect=fixed;pointerEvents=1;shape=mxgraph.aws4.iot_analytics_channel;flipV=0;flipH=1;" vertex="1" parent="1">
          <mxGeometry x="370.25" y="480.9999999999998" width="60" height="72" as="geometry" />
        </mxCell>
        <mxCell id="Haiuo_viOq5dx9oI0FR8-128" value="Java&lt;br&gt;RMI API" style="outlineConnect=0;fontColor=#232F3E;gradientColor=none;fillColor=#000000;strokeColor=none;dashed=0;verticalLabelPosition=bottom;verticalAlign=top;align=center;html=1;fontSize=12;fontStyle=0;aspect=fixed;pointerEvents=1;shape=mxgraph.aws4.iot_analytics_channel;spacing=4;" vertex="1" parent="1">
          <mxGeometry x="572.75" y="481.2499999999998" width="60" height="72" as="geometry" />
        </mxCell>
        <mxCell id="Haiuo_viOq5dx9oI0FR8-129" value="Web&lt;br&gt;SOAP API" style="outlineConnect=0;fontColor=#232F3E;gradientColor=none;fillColor=#000000;strokeColor=none;dashed=0;verticalLabelPosition=bottom;verticalAlign=top;align=center;html=1;fontSize=12;fontStyle=0;aspect=fixed;pointerEvents=1;shape=mxgraph.aws4.iot_analytics_channel;flipV=0;flipH=1;" vertex="1" parent="1">
          <mxGeometry x="710.75" y="481.2499999999998" width="60" height="72" as="geometry" />
        </mxCell>
        <mxCell id="Haiuo_viOq5dx9oI0FR8-130" value="" style="edgeStyle=orthogonalEdgeStyle;rounded=0;orthogonalLoop=1;jettySize=auto;html=1;strokeColor=#545B64;strokeWidth=2;endFill=0;endArrow=open;startArrow=openThin;startFill=0;" edge="1" parent="1" source="Haiuo_viOq5dx9oI0FR8-127" target="Haiuo_viOq5dx9oI0FR8-128">
          <mxGeometry relative="1" as="geometry">
            <mxPoint x="151.66011523687575" y="700.8189655172414" as="sourcePoint" />
            <mxPoint x="515.25" y="552.75" as="targetPoint" />
            <Array as="points">
              <mxPoint x="500.25" y="541.25" />
              <mxPoint x="500.25" y="541.25" />
            </Array>
          </mxGeometry>
        </mxCell>
        <mxCell id="Haiuo_viOq5dx9oI0FR8-131" value="NIA SMS gate&lt;br&gt;192.168.10.30" style="dashed=0;outlineConnect=0;html=1;align=center;labelPosition=center;verticalLabelPosition=bottom;verticalAlign=top;shape=mxgraph.webicons.sms;fillColor=#0000CC;gradientColor=#FF6666;strokeColor=#ffffff;fontColor=#232F3E;fontStyle=0;gradientDirection=north;aspect=fixed;" vertex="1" parent="1">
          <mxGeometry x="843.75" y="281.5" width="78" height="78" as="geometry" />
        </mxCell>
        <mxCell id="Haiuo_viOq5dx9oI0FR8-132" value="" style="edgeStyle=orthogonalEdgeStyle;rounded=0;orthogonalLoop=1;jettySize=auto;html=1;strokeColor=#545B64;strokeWidth=2;endFill=0;endArrow=open;startArrow=none;startFill=0;dashed=1;" edge="1" parent="1" target="Haiuo_viOq5dx9oI0FR8-131">
          <mxGeometry relative="1" as="geometry">
            <mxPoint x="680" y="303" as="sourcePoint" />
            <mxPoint x="500.25" y="313.03" as="targetPoint" />
            <Array as="points">
              <mxPoint x="700" y="303" />
              <mxPoint x="700" y="303" />
            </Array>
          </mxGeometry>
        </mxCell>
        <mxCell id="Haiuo_viOq5dx9oI0FR8-133" value="&lt;font style=&quot;font-size: 14px&quot;&gt;SMPP&lt;/font&gt;" style="text;html=1;align=center;verticalAlign=middle;resizable=0;points=[];;labelBackgroundColor=#ffffff;fontSize=18;fontColor=#000000;" vertex="1" connectable="0" parent="Haiuo_viOq5dx9oI0FR8-132">
          <mxGeometry x="0.2189" y="4" relative="1" as="geometry">
            <mxPoint x="1" as="offset" />
          </mxGeometry>
        </mxCell>
        <mxCell id="Haiuo_viOq5dx9oI0FR8-134" value="" style="edgeStyle=orthogonalEdgeStyle;rounded=0;orthogonalLoop=1;jettySize=auto;html=1;strokeColor=#545B64;strokeWidth=2;endFill=0;endArrow=open;startArrow=none;startFill=0;dashed=1;" edge="1" parent="1" source="Haiuo_viOq5dx9oI0FR8-118" target="Haiuo_viOq5dx9oI0FR8-131">
          <mxGeometry relative="1" as="geometry">
            <mxPoint x="370" y="372.5" as="sourcePoint" />
            <mxPoint x="640.25" y="333.03" as="targetPoint" />
            <Array as="points">
              <mxPoint x="438" y="342.5" />
            </Array>
          </mxGeometry>
        </mxCell>
        <mxCell id="Haiuo_viOq5dx9oI0FR8-135" value="SMPP" style="text;html=1;align=center;verticalAlign=middle;resizable=0;points=[];;labelBackgroundColor=#ffffff;fontSize=14;fontColor=#000000;" vertex="1" connectable="0" parent="Haiuo_viOq5dx9oI0FR8-134">
          <mxGeometry x="0.5989" y="1" relative="1" as="geometry">
            <mxPoint x="3" as="offset" />
          </mxGeometry>
        </mxCell>
        <mxCell id="Haiuo_viOq5dx9oI0FR8-136" value="" style="group;container=1;" vertex="1" connectable="0" parent="1">
          <mxGeometry x="1080" y="491" width="143.5" height="159" as="geometry" />
        </mxCell>
        <mxCell id="Haiuo_viOq5dx9oI0FR8-137" value="" style="group" vertex="1" connectable="0" parent="Haiuo_viOq5dx9oI0FR8-136">
          <mxGeometry x="-10" y="-1" width="153.5" height="148" as="geometry" />
        </mxCell>
        <mxCell id="Haiuo_viOq5dx9oI0FR8-138" value="" style="whiteSpace=wrap;html=1;dashed=0;fontColor=#AAB7B8;fontStyle=0;align=left;verticalAlign=top;strokeColor=#000000;fillColor=none;gradientColor=none;spacingLeft=30;" vertex="1" parent="Haiuo_viOq5dx9oI0FR8-137">
          <mxGeometry x="1" width="119" height="148" as="geometry" />
        </mxCell>
        <mxCell id="Haiuo_viOq5dx9oI0FR8-139" value="&lt;span style=&quot;text-align: left&quot;&gt;TMB&lt;br&gt;&amp;nbsp;Tranwallet&lt;br&gt;Mobile users&lt;/span&gt;" style="outlineConnect=0;fontColor=#232F3E;gradientColor=#FF0000;gradientDirection=north;fillColor=#333333;strokeColor=#ffffff;dashed=0;verticalLabelPosition=middle;verticalAlign=middle;align=left;html=1;fontSize=12;fontStyle=0;aspect=fixed;shape=mxgraph.aws4.resourceIcon;resIcon=mxgraph.aws4.compute;labelPosition=right;spacing=5;" vertex="1" parent="Haiuo_viOq5dx9oI0FR8-137">
          <mxGeometry width="40" height="40" as="geometry" />
        </mxCell>
        <mxCell id="Haiuo_viOq5dx9oI0FR8-140" value="Android" style="shape=image;html=1;verticalAlign=middle;verticalLabelPosition=middle;labelBackgroundColor=#ffffff;imageAspect=0;aspect=fixed;image=https://cdn2.iconfinder.com/data/icons/line-hero-essentials/32/Essentials_smartphone_iphone_phone-128.png;shadow=0;strokeColor=#FF0000;fillColor=#333333;gradientColor=#000000;labelPosition=right;align=left;" vertex="1" parent="Haiuo_viOq5dx9oI0FR8-137">
          <mxGeometry y="47.5" width="50" height="50" as="geometry" />
        </mxCell>
        <mxCell id="Haiuo_viOq5dx9oI0FR8-141" value="iOS" style="shape=image;html=1;verticalAlign=middle;verticalLabelPosition=middle;labelBackgroundColor=#ffffff;imageAspect=0;aspect=fixed;image=https://cdn2.iconfinder.com/data/icons/line-hero-essentials/32/Essentials_smartphone_iphone_phone-128.png;shadow=0;strokeColor=#FF0000;fillColor=#333333;gradientColor=#000000;labelPosition=right;align=left;" vertex="1" parent="Haiuo_viOq5dx9oI0FR8-137">
          <mxGeometry x="39" y="88" width="50" height="50" as="geometry" />
        </mxCell>
        <mxCell id="Haiuo_viOq5dx9oI0FR8-142" value="" style="rounded=0;orthogonalLoop=1;jettySize=auto;html=1;strokeColor=#545B64;strokeWidth=2;endFill=0;endArrow=open;startArrow=openThin;entryX=-0.043;entryY=0.162;entryDx=0;entryDy=0;startFill=0;entryPerimeter=0;" edge="1" parent="1" source="Haiuo_viOq5dx9oI0FR8-154" target="Haiuo_viOq5dx9oI0FR8-138">
          <mxGeometry relative="1" as="geometry">
            <mxPoint x="734.75" y="872.1666666666667" as="sourcePoint" />
            <mxPoint x="934.0833333333335" y="872.1666666666667" as="targetPoint" />
          </mxGeometry>
        </mxCell>
        <mxCell id="Haiuo_viOq5dx9oI0FR8-143" value="TLS" style="text;html=1;align=center;verticalAlign=middle;resizable=0;points=[];;labelBackgroundColor=none;fontSize=14;fontColor=#000000;" vertex="1" connectable="0" parent="Haiuo_viOq5dx9oI0FR8-142">
          <mxGeometry x="0.1634" y="-1" relative="1" as="geometry">
            <mxPoint y="10.5" as="offset" />
          </mxGeometry>
        </mxCell>
        <mxCell id="Haiuo_viOq5dx9oI0FR8-144" value="" style="rounded=0;orthogonalLoop=1;jettySize=auto;html=1;strokeColor=#545B64;strokeWidth=2;endFill=0;endArrow=open;startArrow=openThin;entryX=-0.001;entryY=0.168;entryDx=0;entryDy=0;startFill=0;entryPerimeter=0;" edge="1" parent="1" source="Haiuo_viOq5dx9oI0FR8-154">
          <mxGeometry relative="1" as="geometry">
            <mxPoint x="794.7164804469273" y="601.5" as="sourcePoint" />
            <mxPoint x="1073.6310000000008" y="424.8639999999996" as="targetPoint" />
          </mxGeometry>
        </mxCell>
        <mxCell id="Haiuo_viOq5dx9oI0FR8-145" value="TLS" style="text;html=1;align=center;verticalAlign=middle;resizable=0;points=[];;labelBackgroundColor=none;fontSize=14;fontColor=#000000;" vertex="1" connectable="0" parent="Haiuo_viOq5dx9oI0FR8-144">
          <mxGeometry x="0.1525" y="2" relative="1" as="geometry">
            <mxPoint x="1" y="-15" as="offset" />
          </mxGeometry>
        </mxCell>
        <mxCell id="Haiuo_viOq5dx9oI0FR8-146" value="" style="rounded=0;orthogonalLoop=1;jettySize=auto;html=1;strokeColor=#545B64;strokeWidth=2;endFill=0;endArrow=open;startArrow=none;startFill=0;dashed=1;" edge="1" parent="1" source="Haiuo_viOq5dx9oI0FR8-131" target="Haiuo_viOq5dx9oI0FR8-147">
          <mxGeometry relative="1" as="geometry">
            <mxPoint x="379" y="355.33333333333326" as="sourcePoint" />
            <mxPoint x="647" y="355.33333333333326" as="targetPoint" />
          </mxGeometry>
        </mxCell>
        <mxCell id="Haiuo_viOq5dx9oI0FR8-147" value="Service provider" style="dashed=0;outlineConnect=0;html=1;align=center;labelPosition=center;verticalLabelPosition=bottom;verticalAlign=top;shape=mxgraph.webicons.sms;fillColor=#CCCCCC;gradientColor=#999999;strokeColor=#ffffff;fontColor=#232F3E;fontStyle=0;gradientDirection=north;aspect=fixed;" vertex="1" parent="1">
          <mxGeometry x="1082" y="281.5" width="78" height="78" as="geometry" />
        </mxCell>
        <mxCell id="Haiuo_viOq5dx9oI0FR8-148" value="" style="rounded=0;orthogonalLoop=1;jettySize=auto;html=1;strokeColor=#545B64;strokeWidth=2;endFill=0;endArrow=open;startArrow=none;startFill=0;dashed=1;entryX=1;entryY=0.5;entryDx=0;entryDy=0;edgeStyle=orthogonalEdgeStyle;" edge="1" parent="1" source="Haiuo_viOq5dx9oI0FR8-147">
          <mxGeometry relative="1" as="geometry">
            <mxPoint x="886.5" y="343.08730158730145" as="sourcePoint" />
            <mxPoint x="1192.75" y="474" as="targetPoint" />
            <Array as="points">
              <mxPoint x="1212" y="339" />
              <mxPoint x="1212" y="474" />
            </Array>
          </mxGeometry>
        </mxCell>
        <mxCell id="Haiuo_viOq5dx9oI0FR8-149" value="" style="rounded=0;orthogonalLoop=1;jettySize=auto;html=1;strokeColor=#545B64;strokeWidth=2;endFill=0;endArrow=open;startArrow=none;startFill=0;dashed=1;edgeStyle=orthogonalEdgeStyle;entryX=1;entryY=0.5;entryDx=0;entryDy=0;" edge="1" parent="1" source="Haiuo_viOq5dx9oI0FR8-147" target="Haiuo_viOq5dx9oI0FR8-138">
          <mxGeometry relative="1" as="geometry">
            <mxPoint x="1170" y="340.83333333333326" as="sourcePoint" />
            <mxPoint x="1188" y="689" as="targetPoint" />
            <Array as="points">
              <mxPoint x="1232" y="321" />
              <mxPoint x="1232" y="564" />
            </Array>
          </mxGeometry>
        </mxCell>
        <mxCell id="Haiuo_viOq5dx9oI0FR8-150" value="7" style="rounded=1;whiteSpace=wrap;html=1;fillColor=#007CBD;strokeColor=none;fontColor=#FFFFFF;fontStyle=1;fontSize=22;" vertex="1" parent="1">
          <mxGeometry x="751.75" y="390.25" width="40" height="38" as="geometry" />
        </mxCell>
        <mxCell id="Haiuo_viOq5dx9oI0FR8-151" value="4" style="rounded=1;whiteSpace=wrap;html=1;fillColor=#007CBD;strokeColor=none;fontColor=#FFFFFF;fontStyle=1;fontSize=22;" vertex="1" parent="1">
          <mxGeometry x="409.25" y="389.5" width="40" height="38" as="geometry" />
        </mxCell>
        <mxCell id="Haiuo_viOq5dx9oI0FR8-154" value="NIA IPS&lt;br style=&quot;font-size: 12px&quot;&gt;&lt;span style=&quot;color: rgb(34 , 34 , 34) ; font-family: &amp;#34;arial&amp;#34; , sans-serif ; font-size: 12px ; text-align: left ; white-space: normal ; background-color: rgb(255 , 255 , 255)&quot;&gt;F5Networks&lt;/span&gt;" style="outlineConnect=0;fontColor=#232F3E;gradientColor=#FF6666;gradientDirection=north;fillColor=#0000CC;strokeColor=#ffffff;dashed=0;verticalLabelPosition=bottom;verticalAlign=top;align=center;html=1;fontSize=12;fontStyle=0;aspect=fixed;shape=mxgraph.aws4.resourceIcon;resIcon=mxgraph.aws4.iot_device_defender;labelBackgroundColor=none;" vertex="1" parent="1">
          <mxGeometry x="859" y="478" width="78" height="78" as="geometry" />
        </mxCell>
        <mxCell id="Haiuo_viOq5dx9oI0FR8-155" value="" style="rounded=0;orthogonalLoop=1;jettySize=auto;html=1;strokeColor=#545B64;strokeWidth=2;endFill=0;endArrow=open;startArrow=openThin;startFill=0;" edge="1" parent="1" source="Haiuo_viOq5dx9oI0FR8-129" target="Haiuo_viOq5dx9oI0FR8-154">
          <mxGeometry relative="1" as="geometry">
            <mxPoint x="1009.75" y="546.046902579564" as="sourcePoint" />
            <mxPoint x="859.25" y="553.56" as="targetPoint" />
          </mxGeometry>
        </mxCell>
        <mxCell id="Haiuo_viOq5dx9oI0FR8-156" value="TLS" style="text;html=1;align=center;verticalAlign=middle;resizable=0;points=[];;labelBackgroundColor=none;fontSize=14;fontColor=#000000;" vertex="1" connectable="0" parent="Haiuo_viOq5dx9oI0FR8-155">
          <mxGeometry x="0.1525" y="2" relative="1" as="geometry">
            <mxPoint x="5" y="-9" as="offset" />
          </mxGeometry>
        </mxCell>
      </root>
    </mxGraphModel>
  </diagram>
</mxfile>
